<svg xmlns="http://www.w3.org/2000/svg" width="1040" height="380" viewBox="0 0 1040 380">
  <style>
    .title { font: 24px sans-serif; font-weight: 600; }
    .subtitle { font: 14px sans-serif; fill: #555; }
    .key { fill: #f8f9fb; stroke: #c8ccd4; stroke-width: 2; rx: 8; ry: 8; }
    .label { font: 14px sans-serif; fill: #1f2933; text-anchor: middle; dominant-baseline: middle; }
    .footer { font: 12px sans-serif; fill: #666; }
    .active { fill: #9eacc7; }
  </style>
  <rect width="100%" height="100%" fill="#ffffff" />
  <text x="30" y="36" class="title">Layer 0 - Base (QWERTY)</text>
  <text x="30" y="58" class="subtitle">Thumb keys: Lower = Layer 1, Raise = Layer 2, Lower+Raise = Layer 3</text>
  <text x="1010" y="58" class="subtitle" text-anchor="end">Overrides: Shift+Bksp = Delete, Shift+Code = ?</text>

  <!-- Left half -->
  <g transform="translate(40, 80)">
    <!-- Row 1 -->
    <rect class="key" x="0" y="0" width="60" height="60" />
    <text class="label" x="30" y="30">Tab</text>

    <rect class="key" x="70" y="0" width="60" height="60" />
    <text class="label" x="100" y="30">Q</text>

    <rect class="key" x="140" y="0" width="60" height="60" />
    <text class="label" x="170" y="30">W</text>

    <rect class="key" x="210" y="0" width="60" height="60" />
    <text class="label" x="240" y="30">E</text>

    <rect class="key" x="280" y="0" width="60" height="60" />
    <text class="label" x="310" y="30">R</text>

    <rect class="key" x="350" y="0" width="60" height="60" />
    <text class="label" x="380" y="30">T</text>

    <!-- Row 2 -->
    <rect class="key" x="0" y="70" width="60" height="60" />
    <text class="label" x="30" y="100">Ctrl</text>

    <rect class="key" x="70" y="70" width="60" height="60" />
    <text class="label" x="100" y="100">A</text>

    <rect class="key" x="140" y="70" width="60" height="60" />
    <text class="label" x="170" y="100">S</text>

    <rect class="key" x="210" y="70" width="60" height="60" />
    <text class="label" x="240" y="100">D</text>

    <rect class="key" x="280" y="70" width="60" height="60" />
    <text class="label" x="310" y="100">F</text>

    <rect class="key" x="350" y="70" width="60" height="60" />
    <text class="label" x="380" y="100">G</text>

    <!-- Row 3 -->
    <rect class="key" x="0" y="140" width="60" height="60" />
    <text class="label" x="30" y="170">Alt</text>

    <rect class="key" x="70" y="140" width="60" height="60" />
    <text class="label" x="100" y="170">Z</text>

    <rect class="key" x="140" y="140" width="60" height="60" />
    <text class="label" x="170" y="170">X</text>

    <rect class="key" x="210" y="140" width="60" height="60" />
    <text class="label" x="240" y="170">C</text>

    <rect class="key" x="280" y="140" width="60" height="60" />
    <text class="label" x="310" y="170">V</text>

    <rect class="key" x="350" y="140" width="60" height="60" />
    <text class="label" x="380" y="170">B</text>

    <!-- Thumbs -->
    <rect class="key" x="80" y="220" width="70" height="60" />
    <text class="label" x="115" y="250">Meta</text>

    <rect class="key" x="160" y="220" width="70" height="60" />
    <text class="label" x="195" y="250">Lower</text>

    <rect class="key" x="240" y="220" width="120" height="60" />
    <text class="label" x="300" y="250">Space</text>
  </g>

  <!-- Right half -->
  <g transform="translate(560, 80)">
    <!-- Row 1 -->
    <rect class="key" x="0" y="0" width="60" height="60" />
    <text class="label" x="30" y="30">Y</text>

    <rect class="key" x="70" y="0" width="60" height="60" />
    <text class="label" x="100" y="30">U</text>

    <rect class="key" x="140" y="0" width="60" height="60" />
    <text class="label" x="170" y="30">I</text>

    <rect class="key" x="210" y="0" width="60" height="60" />
    <text class="label" x="240" y="30">O</text>

    <rect class="key" x="280" y="0" width="60" height="60" />
    <text class="label" x="310" y="30">P</text>

    <rect class="key" x="350" y="0" width="60" height="60" />
    <text class="label" x="380" y="30">Bksp</text>

    <!-- Row 2 -->
    <rect class="key" x="0" y="70" width="60" height="60" />
    <text class="label" x="30" y="100">H</text>

    <rect class="key" x="70" y="70" width="60" height="60" />
    <text class="label" x="100" y="100">J</text>

    <rect class="key" x="140" y="70" width="60" height="60" />
    <text class="label" x="170" y="100">K</text>

    <rect class="key" x="210" y="70" width="60" height="60" />
    <text class="label" x="240" y="100">L</text>

    <rect class="key" x="280" y="70" width="60" height="60" />
    <text class="label" x="310" y="100">;</text>

    <rect class="key" x="350" y="70" width="60" height="60" />
    <text class="label" x="380" y="100">'</text>

    <!-- Row 3 -->
    <rect class="key" x="0" y="140" width="60" height="60" />
    <text class="label" x="30" y="170">N</text>

    <rect class="key" x="70" y="140" width="60" height="60" />
    <text class="label" x="100" y="170">M</text>

    <rect class="key" x="140" y="140" width="60" height="60" />
    <text class="label" x="170" y="170">,</text>

    <rect class="key" x="210" y="140" width="60" height="60" />
    <text class="label" x="240" y="170">.</text>

    <rect class="key" x="280" y="140" width="60" height="60" />
    <text class="label" x="310" y="170">Code</text>

    <rect class="key" x="350" y="140" width="60" height="60" />
    <text class="label" x="380" y="170">Esc</text>

    <!-- Thumbs -->
    <rect class="key" x="80" y="220" width="120" height="60" />
    <text class="label" x="140" y="250">Enter</text>

    <rect class="key" x="210" y="220" width="70" height="60" />
    <text class="label" x="245" y="250">Raise</text>

    <rect class="key" x="290" y="220" width="70" height="60" />
    <text class="label" x="325" y="250">Shift</text>
  </g>

</svg>
